<?xml version="1.0" encoding="UTF-8"?>
<svg version="1.1" xmlns="http://www.w3.org/2000/svg" width="1024" height="1024">
<path d="M0 0 C6.13680092 0.13637335 9.75121776 2.53245428 14.77734375 5.90625 C18.43231231 8.280872 22.18566129 10.3954754 26 12.5 C31.65671601 15.63642329 37.14624945 18.93878853 42.57421875 22.4609375 C45.47553587 24.30170875 48.45665879 25.94277544 51.47265625 27.5859375 C54.58347054 29.32645492 57.63589324 31.15852721 60.6875 33 C67.27179508 36.9713569 73.88021278 40.90058253 80.5 44.8125 C81.43158936 45.36357422 82.36317871 45.91464844 83.32299805 46.48242188 C84.66358276 47.27422852 84.66358276 47.27422852 86.03125 48.08203125 C86.82080078 48.54843018 87.61035156 49.0148291 88.42382812 49.49536133 C90.49692499 50.70617406 92.57604699 51.90390201 94.66101074 53.09403992 C95.7628772 53.72300674 96.86474365 54.35197357 98 55 C98.42121339 74.10591259 98.73824012 93.21087875 98.93261909 112.32047749 C99.02529058 121.19448195 99.15151707 130.06559592 99.35791016 138.93774414 C99.53780569 146.67456571 99.65355342 154.40929433 99.69359291 162.14814919 C99.71699146 166.24406121 99.77158039 170.33398875 99.90314102 174.42797279 C100.67255373 199.31320503 100.67255373 199.31320503 96.24076843 205.42686462 C92.05263939 209.22181116 87.43359793 211.40236761 82.12780476 213.22786522 C79.24576391 214.27369613 76.77264247 215.80493192 74.203125 217.4609375 C72.5529072 218.43369066 70.90187414 219.40506221 69.25 220.375 C67.38931046 221.47133303 65.52863377 222.56768786 63.66796875 223.6640625 C62.73645996 224.21223633 61.80495117 224.76041016 60.84521484 225.32519531 C49.81901499 231.8156476 38.79541204 238.31148403 27.8125 244.875 C27.21501953 245.23045898 26.61753906 245.58591797 26.00195312 245.95214844 C22.27123461 248.18680267 18.66634803 250.56789491 15.0625 253 C10.40069652 255.93597358 7.56345396 257.44154396 2 257 C-0.67881458 255.72724058 -3.08102704 254.25864742 -5.55078125 252.6171875 C-7.72277103 251.18305071 -9.83575908 250.0383149 -12.1875 248.9375 C-15.51979955 247.32834126 -18.37322006 245.36919009 -21.3359375 243.1640625 C-23.74633066 241.47791893 -26.35045977 240.26455329 -29 239 C-29.99 238.34 -30.98 237.68 -32 237 C-30.50236675 232.67350396 -27.28632882 230.90475433 -23.5625 228.625 C-22.93142334 228.22925781 -22.30034668 227.83351563 -21.65014648 227.42578125 C-17.15336788 224.63369725 -12.56084195 222.06189266 -7.88671875 219.578125 C-3.83971056 217.3656875 0.09596034 214.97667489 4.04199219 212.59106445 C8.73660879 209.75400042 13.45444423 206.95991574 18.1875 204.1875 C25.38786252 199.96613873 32.55072096 195.6843825 39.69799805 191.3737793 C40.4744165 190.90625244 41.25083496 190.43872559 42.05078125 189.95703125 C42.78839691 189.487173 43.52601257 189.01731476 44.28598022 188.53321838 C47 187 47 187 50.03746033 185.96343994 C53.88552745 184.42778923 56.1610241 183.04961071 59 180 C61.51689866 173.00605677 60.98580741 165.04291769 61.015625 157.71484375 C61.05422412 155.49391125 61.09459662 153.27300892 61.13665771 151.05213928 C61.20844857 146.39707884 61.23075155 141.74468609 61.22363281 137.08911133 C61.22265704 132.32833761 61.30577299 127.58141244 61.46972656 122.82348633 C63.76850132 98.10136498 63.76850132 98.10136498 56.6328125 75.49786377 C51.06663346 70.40055956 44.9482062 67.80728426 37.7387085 65.81469727 C34.133748 64.7423117 31.57120178 63.14224762 28.5 61 C19.42372096 55.34552669 10.1293243 50.05283861 0.88525391 44.67919922 C-4.44201852 41.57876092 -9.75858857 38.46053679 -15.0625 35.3203125 C-17.82056274 33.68790488 -20.59332693 32.08400485 -23.375 30.4921875 C-24.77092043 29.68244179 -26.16675706 28.8725516 -27.5625 28.0625 C-28.2129126 27.69664795 -28.8633252 27.3307959 -29.53344727 26.95385742 C-31.31640625 25.91015625 -31.31640625 25.91015625 -34 24 C-34 23.01 -34 22.02 -34 21 C-32.92621094 20.40832031 -31.85242188 19.81664062 -30.74609375 19.20703125 C-29.30977298 18.40907527 -27.87358198 17.61088566 -26.4375 16.8125 C-25.73302734 16.42513672 -25.02855469 16.03777344 -24.30273438 15.63867188 C-20.20133156 13.35171455 -16.38459591 10.89117193 -12.60083008 8.11352539 C-10.39237714 6.5773421 -8.06245057 5.44122711 -5.625 4.3125 C-2.12301857 2.88128444 -2.12301857 2.88128444 0 0 Z " fill="#000000" transform="translate(542,335)"/>
<path d="M0 0 C4.03482207 1.53196388 7.40969021 3.51181548 10.98046875 5.9140625 C12.40212062 6.83698907 13.82530078 7.75756578 15.25 8.67578125 C15.93529785 9.11970215 16.6205957 9.56362305 17.32666016 10.02099609 C19.71792966 11.5352419 22.16896393 12.89860741 24.66796875 14.2265625 C38.14340055 21.40543837 51.38153132 29.34363649 64.27114868 37.52282715 C66.52917476 38.82281457 68.58435601 39.81490918 70.97215271 40.79550171 C80.97624421 45.24774502 80.97624421 45.24774502 83.07014465 50.22081566 C84.36772499 56.19776858 83.95051234 62.28646332 83.6953125 68.35546875 C83.66730285 70.31550448 83.64596631 72.2756459 83.6309967 74.23582458 C83.57396489 79.37288068 83.42688579 84.50348056 83.26043701 89.63800049 C83.10643291 94.88603348 83.03836807 100.13512 82.96289062 105.38476562 C82.80245588 115.66818772 82.5467864 125.94683655 82.23046875 136.2265625 C81.68254166 136.52410934 81.13461456 136.82165619 80.57008362 137.1282196 C70.6231428 142.53897376 60.71652817 147.94273492 51.16796875 154.0390625 C45.2457688 157.79926341 39.27647647 161.33819868 33.09790039 164.66186523 C27.99440231 167.44673703 22.99367363 170.40820358 17.98046875 173.3515625 C14.94370383 175.13056284 11.90707062 176.90925854 8.86132812 178.67285156 C7.25842181 179.61948257 5.67107569 180.59406773 4.11523438 181.61621094 C-0.13215988 184.35520626 -0.13215988 184.35520626 -3.32421875 183.7109375 C-4.53464844 182.97617187 -4.53464844 182.97617187 -5.76953125 182.2265625 C-6.74148438 181.65421875 -7.7134375 181.081875 -8.71484375 180.4921875 C-10.28878906 179.49445313 -10.28878906 179.49445313 -11.89453125 178.4765625 C-15.85219514 175.99418477 -19.82792541 173.60306297 -23.95703125 171.4140625 C-29.68333022 168.34729281 -35.18713905 164.95221083 -40.71557617 161.546875 C-46.73900772 157.84130661 -52.81160689 154.22859077 -58.91625977 150.65869141 C-62.74176714 148.4214628 -66.54712091 146.15717964 -70.33203125 143.8515625 C-73.27297602 142.06886653 -76.23467321 140.47071057 -79.33203125 138.9765625 C-82.76953125 137.2265625 -82.76953125 137.2265625 -83.76953125 135.2265625 C-83.85395915 133.72363148 -83.87522329 132.21693568 -83.86499023 130.71166992 C-83.86153091 129.75915848 -83.85807159 128.80664703 -83.85450745 127.82527161 C-83.84580124 126.77562729 -83.83709503 125.72598297 -83.828125 124.64453125 C-83.81682393 122.3546584 -83.80628238 120.0647817 -83.79638672 117.77490234 C-83.7903241 116.54995056 -83.78426147 115.32499878 -83.77801514 114.06292725 C-83.76790334 109.49042912 -83.79795444 104.91875717 -83.83182335 100.34640312 C-83.86981723 94.84545983 -83.86801613 89.34520796 -83.84467506 83.84419441 C-83.83111497 80.30299345 -83.83537084 76.76344184 -83.87573242 73.22241211 C-83.91496839 69.71738356 -83.91045226 66.21487678 -83.87560844 62.70982933 C-83.86739186 60.76325823 -83.90396123 58.81666087 -83.94166565 56.87043762 C-83.80168259 48.32884718 -83.80168259 48.32884718 -80.79696655 45.1199646 C-78.50962418 43.57233729 -76.28269987 42.36208738 -73.76953125 41.2265625 C-72.78984375 40.6696875 -71.81015625 40.1128125 -70.80078125 39.5390625 C-69.96546875 39.1059375 -69.13015625 38.6728125 -68.26953125 38.2265625 C-64.80362269 36.37807794 -61.50884279 34.4478047 -58.26953125 32.2265625 C-54.22918723 29.46625667 -50.04407045 27.13572893 -45.734375 24.82421875 C-42.68357125 23.1802415 -39.65959933 21.49772409 -36.64453125 19.7890625 C-36.08926758 19.47606201 -35.53400391 19.16306152 -34.96191406 18.84057617 C-30.76196611 16.44404954 -26.65753088 13.91552041 -22.5625 11.34375 C-20.90275146 10.31399048 -20.90275146 10.31399048 -19.20947266 9.26342773 C-16.98437805 7.88034341 -14.76885287 6.48172532 -12.56396484 5.06665039 C-4.83916898 0.29085161 -4.83916898 0.29085161 0 0 Z M-6.80078125 31.5 C-7.96729433 32.18329403 -9.12305747 32.88515383 -10.26953125 33.6015625 C-10.89045654 33.97224854 -11.51138184 34.34293457 -12.15112305 34.72485352 C-16.04957319 37.07866292 -19.82430349 39.59134433 -23.58203125 42.1640625 C-29.12500105 45.95150952 -34.91208841 49.06025394 -40.89575195 52.08178711 C-44.91934881 54.13661991 -48.23824952 56.38241681 -51.76953125 59.2265625 C-53.42328439 59.92464757 -55.08886201 60.59602849 -56.76953125 61.2265625 C-57.70615947 72.63295895 -58.04757655 84.01238524 -58.11962891 95.45507812 C-58.13638542 97.40409114 -58.16392427 99.3530381 -58.20166016 101.30175781 C-58.25628521 104.15461074 -58.27825109 107.00607082 -58.29296875 109.859375 C-58.32697281 111.1609404 -58.32697281 111.1609404 -58.36166382 112.48880005 C-58.34631848 116.86135249 -58.2249945 118.64787476 -55.43774414 122.18920898 C-52.38584891 124.51952884 -49.22231266 126.38813942 -45.83203125 128.1640625 C-37.87353199 132.4792412 -30.26619715 137.27199242 -22.66040039 142.17749023 C-20.90484739 143.30887521 -19.14604016 144.43522889 -17.38378906 145.55615234 C-15.58520389 146.70537907 -13.79862553 147.87354536 -12.02246094 149.05712891 C-11.14235352 149.6247998 -10.26224609 150.1924707 -9.35546875 150.77734375 C-8.56962402 151.29594971 -7.7837793 151.81455566 -6.97412109 152.34887695 C-4.79405687 153.49833019 -4.79405687 153.49833019 -2.65478516 152.46948242 C-2.03265137 152.05931885 -1.41051758 151.64915527 -0.76953125 151.2265625 C0.13796875 150.7521875 1.04546875 150.2778125 1.98046875 149.7890625 C2.72296875 149.2734375 3.46546875 148.7578125 4.23046875 148.2265625 C4.23046875 147.2365625 4.23046875 146.2465625 4.23046875 145.2265625 C1.96214539 143.63873615 -0.24100206 142.26690607 -2.64453125 140.9140625 C-4.03776042 140.10546875 -5.43098958 139.296875 -6.82421875 138.48828125 C-7.84660645 137.90312744 -7.84660645 137.90312744 -8.88964844 137.30615234 C-11.20243308 135.97795316 -13.48774541 134.60723631 -15.76953125 133.2265625 C-18.65610017 131.49365574 -21.54406488 129.76312106 -24.43359375 128.03515625 C-25.75394021 127.24484839 -27.07425228 126.4544831 -28.39453125 125.6640625 C-29.04123779 125.27742432 -29.68794434 124.89078613 -30.35424805 124.49243164 C-33.79549081 122.42998103 -37.20432399 120.32973273 -40.58203125 118.1640625 C-43.43267926 116.05342407 -43.43267926 116.05342407 -45.76953125 116.2265625 C-45.76953125 100.0565625 -45.76953125 83.8865625 -45.76953125 67.2265625 C-44.44953125 66.5665625 -43.12953125 65.9065625 -41.76953125 65.2265625 C-35.49825106 61.90420051 -29.47386721 58.21695837 -23.4453125 54.4765625 C-18.63027064 51.50938402 -13.74401022 48.66296385 -8.85742188 45.81567383 C-4.10507274 43.03949853 0.57864164 40.16803341 5.23046875 37.2265625 C0.15028662 31.11900542 0.15028662 31.11900542 -6.80078125 31.5 Z M-8.20703125 59.7890625 C-9.64611692 60.70992693 -11.08623172 61.62918497 -12.52734375 62.546875 C-13.59903809 63.22991699 -13.59903809 63.22991699 -14.69238281 63.92675781 C-18.52823839 66.32709809 -22.46867001 68.53904454 -26.4140625 70.75390625 C-29.44090222 72.62183526 -29.44090222 72.62183526 -31.76953125 75.2265625 C-32.14068097 77.81130166 -32.33230102 80.15293252 -32.37890625 82.74609375 C-32.39600647 83.48228439 -32.41310669 84.21847504 -32.4307251 84.97697449 C-32.45904182 86.53440463 -32.47866413 88.09201363 -32.49023438 89.6496582 C-32.51933333 92.02292041 -32.61232219 94.38833958 -32.70703125 96.75976562 C-33.08520401 104.65846031 -33.08520401 104.65846031 -29.86230469 111.5546875 C-27.54125742 113.11669216 -25.36272934 114.19234483 -22.76953125 115.2265625 C-21.34446099 116.00300007 -19.92638533 116.79258651 -18.51953125 117.6015625 C-17.78734375 117.9934375 -17.05515625 118.3853125 -16.30078125 118.7890625 C-14.32474019 119.91125866 -12.39568112 121.11629401 -10.48828125 122.3515625 C-9.9149707 122.7223291 -9.34166016 123.0930957 -8.75097656 123.47509766 C-7.08893946 124.55640606 -5.43680541 125.65289005 -3.78515625 126.75 C-0.96192088 128.41081828 -0.96192088 128.41081828 1.68359375 128.20703125 C5.10184901 126.89110783 8.1378514 125.09925119 11.23046875 123.1640625 C11.87967285 122.76574219 12.52887695 122.36742187 13.19775391 121.95703125 C14.54296995 121.1306142 15.88622256 120.30099301 17.22753906 119.46826172 C19.16829865 118.26510432 21.11584587 117.07390669 23.06640625 115.88671875 C28.43882259 112.92720566 28.43882259 112.92720566 33.23046875 109.2265625 C33.64310115 104.18948663 33.75839936 99.15179607 33.85522461 94.09985352 C33.8968495 92.40100713 33.95818779 90.70252259 34.03979492 89.00512695 C34.86160749 79.36543934 34.86160749 79.36543934 31.26757812 70.92822266 C28.64843123 69.35379735 26.09282946 68.28668672 23.23046875 67.2265625 C21.69339447 66.35805888 20.17367316 65.45789761 18.67578125 64.5234375 C17.23593938 63.67403438 15.79583803 62.82507095 14.35546875 61.9765625 C13.62328125 61.5434375 12.89109375 61.1103125 12.13671875 60.6640625 C11.42773438 60.24640625 10.71875 59.82875 9.98828125 59.3984375 C9.36066895 59.0281543 8.73305664 58.65787109 8.08642578 58.27636719 C1.12305807 54.33760355 -1.5837272 55.47939424 -8.20703125 59.7890625 Z " fill="#000000" transform="translate(508.76953125,372.7734375)"/>
</svg>
